<?xml version="1.0" encoding="utf-8"?>
<!-- Generator: Adobe Illustrator 19.2.1, SVG Export Plug-In . SVG Version: 6.00 Build 0)  -->
<svg version="1.1" id="Layer_1" xmlns="http://www.w3.org/2000/svg" xmlns:xlink="http://www.w3.org/1999/xlink" x="0px" y="0px"
	 viewBox="0 0 86 77" style="enable-background:new 0 0 86 77;" xml:space="preserve">
<style type="text/css">
	.st0{fill:#DACEE0;}
</style>
<g>
	<title>Essential Icons</title>
	<path class="st0" d="M73,15H13c-1.7,0-3-1.3-3-3s1.3-3,3-3h60c1.7,0,3,1.3,3,3S74.7,15,73,15z"/>
	<path class="st0" d="M73,40H13c-1.7,0-3-1.3-3-3s1.3-3,3-3h60c1.7,0,3,1.3,3,3S74.7,40,73,40z"/>
	<path class="st0" d="M73,65H13c-1.7,0-3-1.3-3-3s1.3-3,3-3h60c1.7,0,3,1.3,3,3S74.7,65,73,65z"/>
</g>
</svg>
