<?xml version="1.0" encoding="utf-8"?>
<!-- Generator: Adobe Illustrator 19.2.1, SVG Export Plug-In . SVG Version: 6.00 Build 0)  -->
<svg version="1.1" id="Layer_1" xmlns="http://www.w3.org/2000/svg" xmlns:xlink="http://www.w3.org/1999/xlink" x="0px" y="0px"
	 viewBox="0 0 100 81" style="enable-background:new 0 0 100 81;" xml:space="preserve">
<g>
	<path d="M50,20.7c5.7,0,10.3-4.6,10.3-10.3S55.7,0,50,0S39.7,4.6,39.7,10.3S44.3,20.7,50,20.7z M50,30c-5.7,0-10.3,4.6-10.3,10.3
		S44.3,50.7,50,50.7S60.3,46,60.3,40.3S55.7,30,50,30z M50,60.3c-5.7,0-10.3,4.6-10.3,10.3S44.3,81,50,81s10.3-4.6,10.3-10.3
		S55.7,60.3,50,60.3z"/>
</g>
</svg>
