<svg xmlns="http://www.w3.org/2000/svg" xmlns:xlink="http://www.w3.org/1999/xlink" version="1.1" x="0px" y="0px" viewBox="0 0 100 125" enable-background="new 0 0 100 100" xml:space="preserve"><path d="M49.01,44.719c-32.288-0.507-43.37-0.75-44.003,6.558c-0.634,7.308,8.073,4.872,45.428,4.685  c37.355-0.188,44.479,2.436,44.637-4.31C95.229,44.907,84.783,45.281,49.01,44.719z M48.688,30.23  c24.062-1.23,32.235,3.58,32.235-5.077c0-8.657-12.923-4.154-27.705-5.551c-26.647-2.518-34.091-1.198-34.132,6.376  C19.056,31.54,27.94,31.292,48.688,30.23z M51.073,70.145c-23.057-0.091-32.016-1.187-31.994,5.284  c0.022,6.47,5.421,6.568,21.117,5.984c21.092-0.785,41.42,3.468,40.873-3.721C80.519,70.504,72.668,70.229,51.073,70.145z"/><text x="0" y="115" fill="#000000" font-size="5px" font-weight="bold" font-family="'Helvetica Neue', Helvetica, Arial-Unicode, Arial, Sans-serif">Created by Luke Peek</text><text x="0" y="120" fill="#000000" font-size="5px" font-weight="bold" font-family="'Helvetica Neue', Helvetica, Arial-Unicode, Arial, Sans-serif">from the Noun Project</text></svg>