<?xml version="1.0" encoding="utf-8"?>
<!-- Generator: Adobe Illustrator 19.2.1, SVG Export Plug-In . SVG Version: 6.00 Build 0)  -->
<svg version="1.1" id="Layer_1" xmlns="http://www.w3.org/2000/svg" xmlns:xlink="http://www.w3.org/1999/xlink" x="0px" y="0px"
	 viewBox="0 0 92 91" style="enable-background:new 0 0 92 91;" xml:space="preserve">
<g>
	<g>
		<path d="M69.8,83.2c-0.5,0.4-1.1,0.6-1.8,0.6c-1.4-0.1-2.4-1.3-2.3-2.7l0.9-10.4l-10.4-0.9c-1.4-0.1-2.4-1.3-2.3-2.7
			c0.1-1.4,1.3-2.4,2.7-2.3l12.9,1.1c0.7,0.1,1.3,0.4,1.7,0.9c0.4,0.5,0.6,1.2,0.6,1.8l-1.1,12.9C70.6,82.2,70.2,82.8,69.8,83.2z"/>
		<path d="M21.8,7.8c0.5-0.4,1.1-0.6,1.8-0.6C25,7.3,26,8.5,25.9,9.9L25,20.3l10.4,0.9c1.4,0.1,2.4,1.3,2.3,2.7
			c-0.1,1.4-1.3,2.4-2.7,2.3l-12.9-1.1c-0.7-0.1-1.3-0.4-1.7-0.9c-0.4-0.5-0.6-1.2-0.6-1.8l1.2-13C21,8.8,21.4,8.2,21.8,7.8z"/>
		<path d="M56.7,74.2c-0.1,0.1-0.2,0.2-0.3,0.3C56.5,74.4,56.6,74.3,56.7,74.2c0,0,0.1-0.1,0.2-0.1C56.8,74.2,56.8,74.2,56.7,74.2z
			 M35.8,11.9c-0.7-0.8-1.7-1.3-2.8-1.2c-0.7,0.1-1.4,0.3-1.9,0.8c-0.8,0.7-1.3,1.7-1.2,2.8c0.1,1.8,1.7,3.2,3.6,3.1
			c0.7,0,1.4-0.3,1.9-0.8c0.8-0.7,1.3-1.7,1.2-2.8C36.5,13.1,36.2,12.4,35.8,11.9z M51.1,77.2c-0.7-0.8-1.7-1.3-2.8-1.2
			c-0.7,0.1-1.4,0.3-1.9,0.8c-0.8,0.7-1.3,1.7-1.2,2.8c0.1,1.8,1.7,3.2,3.6,3.1c0.7,0,1.4-0.3,1.9-0.8c0.8-0.7,1.3-1.7,1.2-2.8
			C51.8,78.2,51.5,77.7,51.1,77.2z M81.5,51.3c-0.4-0.5-1-0.9-1.7-1.1c-1.1-0.3-2.2,0-2.9,0.7c-0.5,0.4-0.9,1-1.1,1.8
			c-0.4,1.8,0.7,3.6,2.4,4c1.1,0.3,2.2,0,2.9-0.7c0.5-0.4,0.9-1,1.1-1.8C82.4,53.2,82.1,52.1,81.5,51.3z M40.5,76.2
			c-0.5-0.5-1.1-0.9-1.8-1.1c-1.1-0.3-2.1,0-2.9,0.7c-0.5,0.4-0.9,1-1.1,1.8c-0.4,1.8,0.7,3.6,2.5,4c1.1,0.3,2.1,0,2.9-0.7
			c0.5-0.4,0.9-1.1,1.1-1.8C41.5,78.2,41.2,77,40.5,76.2z M82.4,40.8c-0.7-0.8-1.7-1.3-2.8-1.2c-0.7,0-1.4,0.3-1.9,0.8
			c-0.8,0.7-1.3,1.7-1.2,2.8c0.1,1.8,1.7,3.2,3.6,3.1c0.7,0,1.4-0.3,1.9-0.8c0.8-0.7,1.3-1.7,1.2-2.8C83.1,41.9,82.8,41.3,82.4,40.8
			z M30.8,72.2c-0.2-0.3-0.5-0.5-0.8-0.7c-1.3-0.8-2.8-0.6-3.9,0.3c-0.3,0.2-0.5,0.5-0.7,0.8c-1,1.6-0.5,3.6,1.1,4.6
			c1.3,0.8,2.8,0.6,3.9-0.3c0.3-0.2,0.5-0.5,0.7-0.8C31.8,74.8,31.7,73.2,30.8,72.2z M80.5,31.3c-0.1-0.3-0.3-0.6-0.5-0.9
			c-0.9-1.1-2.4-1.5-3.8-0.9c-0.3,0.1-0.6,0.3-0.9,0.5c-1.1,0.9-1.5,2.4-0.9,3.8c0.7,1.7,2.6,2.5,4.3,1.8c0.3-0.1,0.6-0.3,0.9-0.5
			C80.6,34.2,81,32.8,80.5,31.3z M22.7,65.2l-0.1-0.1c-0.6-0.7-1.4-1.1-2.3-1.2s-1.7,0.2-2.4,0.8c-0.7,0.6-1.1,1.4-1.2,2.3
			s0.2,1.7,0.8,2.4l0.1,0.2c0.6,0.7,1.4,1.1,2.2,1.2c0.8,0.1,1.7-0.2,2.4-0.8l0,0c0.7-0.6,1.1-1.4,1.1-2.3
			C23.5,66.8,23.3,65.9,22.7,65.2z M74.5,21.5L74.5,21.5c-0.6-0.7-1.4-1.1-2.3-1.2c-0.8-0.1-1.7,0.2-2.4,0.8
			c-1.4,1.2-1.6,3.3-0.4,4.7c0.6,0.7,1.4,1.1,2.3,1.2c0.8,0.1,1.7-0.2,2.4-0.8l0,0C75.5,25,75.6,22.8,74.5,21.5z M17.7,56.9
			c-0.1-0.3-0.3-0.6-0.5-0.9c-0.9-1.1-2.4-1.5-3.8-0.9c-0.3,0.1-0.6,0.3-0.9,0.5c-1.1,0.9-1.5,2.4-0.9,3.8c0.7,1.7,2.6,2.5,4.3,1.9
			c0.3-0.1,0.6-0.3,0.9-0.5C17.8,59.8,18.2,58.2,17.7,56.9z M66.4,14.6c-0.2-0.3-0.5-0.5-0.8-0.7c-1.3-0.8-2.8-0.6-3.9,0.3
			c-0.3,0.2-0.5,0.5-0.7,0.8c-1,1.6-0.5,3.6,1.1,4.6c1.2,0.8,2.8,0.6,3.9-0.3c0.3-0.2,0.5-0.5,0.7-0.8
			C67.5,17.1,67.3,15.6,66.4,14.6z M14.7,45.6c-0.7-0.8-1.7-1.3-2.8-1.2c-0.7,0.1-1.4,0.3-1.9,0.8c-0.8,0.7-1.3,1.7-1.2,2.8
			c0.1,1.8,1.7,3.2,3.5,3.1c0.7-0.1,1.4-0.3,1.9-0.8c0.8-0.7,1.3-1.7,1.2-2.8C15.5,46.8,15.2,46.2,14.7,45.6z M56.7,10.3
			c-0.4-0.5-1-0.9-1.8-1.1c-1.1-0.3-2.1,0-2.9,0.7c-0.5,0.4-0.9,1-1.1,1.8c-0.4,1.8,0.6,3.6,2.4,4c1.1,0.3,2.1,0,2.9-0.7
			c0.5-0.4,0.9-1,1.1-1.8C57.6,12.2,57.3,11.1,56.7,10.3z M15.7,35.1c-0.4-0.5-1-0.9-1.8-1.1c-1.1-0.3-2.2,0-2.9,0.7
			c-0.5,0.4-0.9,1-1.1,1.8c-0.4,1.8,0.7,3.6,2.4,4c1.1,0.3,2.1,0,2.9-0.7c0.5-0.4,0.9-1,1.1-1.7C16.6,36.9,16.3,35.9,15.7,35.1z
			 M46.1,9.4c-0.7-0.8-1.7-1.3-2.8-1.2c-0.7,0-1.4,0.3-1.9,0.8c-0.8,0.7-1.3,1.7-1.2,2.8c0.1,1.8,1.7,3.2,3.6,3.1
			c0.7,0,1.4-0.3,1.9-0.8c0.8-0.7,1.3-1.7,1.2-2.8C46.8,10.6,46.6,10,46.1,9.4z"/>
		<path d="M62.2,76.7c0.1,0.9-0.3,1.8-0.9,2.5c-0.1,0.1-0.2,0.2-0.3,0.3l0,0c-0.5,0.4-1.2,0.7-1.9,0.8c-1.8,0.1-3.4-1.2-3.6-3.1
			c-0.1-0.7,0.1-1.3,0.4-1.9c0.1-0.1,0.1-0.2,0.2-0.4c0.1-0.1,0.2-0.2,0.3-0.3c0.1-0.1,0.2-0.2,0.3-0.2c0.1-0.1,0.1-0.1,0.2-0.2l0,0
			c0.5-0.3,1-0.5,1.7-0.6c1.1-0.1,2.1,0.4,2.8,1.2C61.8,75.2,62.1,75.8,62.2,76.7z"/>
	</g>
</g>
</svg>
